<?xml version="1.0" encoding="UTF-8" standalone="no"?>
<svg
   xmlns:serif="http://www.serif.com/"
   xmlns:dc="http://purl.org/dc/elements/1.1/"
   xmlns:cc="http://creativecommons.org/ns#"
   xmlns:rdf="http://www.w3.org/1999/02/22-rdf-syntax-ns#"
   xmlns:svg="http://www.w3.org/2000/svg"
   xmlns="http://www.w3.org/2000/svg"
   xmlns:xlink="http://www.w3.org/1999/xlink"
   xmlns:sodipodi="http://sodipodi.sourceforge.net/DTD/sodipodi-0.dtd"
   xmlns:inkscape="http://www.inkscape.org/namespaces/inkscape"
   width="1170.8816"
   height="612.89111"
   viewBox="0 0 1170.8816 612.89111"
   version="1.1"
   xml:space="preserve"
   style="clip-rule:evenodd;fill-rule:evenodd;stroke-linejoin:round;stroke-miterlimit:1.41421"
   id="svg870"
   sodipodi:docname="ferrisbearuofinvestigation.svg"
   inkscape:version="1.0.2 (e86c870879, 2021-01-15)"
   inkscape:export-filename="/home/frans/Documents/rust/ferris/ferrisbi.png"
   inkscape:export-xdpi="100"
   inkscape:export-ydpi="100"><metadata
   id="metadata876"><rdf:RDF><cc:Work
       rdf:about=""><dc:format>image/svg+xml</dc:format><dc:type
         rdf:resource="http://purl.org/dc/dcmitype/StillImage" /><dc:title /></cc:Work></rdf:RDF></metadata><defs
   id="defs874"><linearGradient
     inkscape:collect="always"
     id="linearGradient1492"><stop
       style="stop-color:#000000;stop-opacity:1;"
       offset="0"
       id="stop1488" /><stop
       style="stop-color:#545454;stop-opacity:1"
       offset="1"
       id="stop1490" /></linearGradient><linearGradient
     inkscape:collect="always"
     xlink:href="#linearGradient1492"
     id="linearGradient1486"
     x1="32.563854"
     y1="-94.499161"
     x2="30.1567"
     y2="17.990677"
     gradientUnits="userSpaceOnUse" /><linearGradient
     inkscape:collect="always"
     xlink:href="#linearGradient1492"
     id="linearGradient1500"
     x1="31.034864"
     y1="-84.867767"
     x2="30.584742"
     y2="21.490393"
     gradientUnits="userSpaceOnUse" /><linearGradient
     inkscape:collect="always"
     xlink:href="#linearGradient1492"
     id="linearGradient870"
     gradientUnits="userSpaceOnUse"
     x1="32.563854"
     y1="-94.499161"
     x2="30.1567"
     y2="17.990677" /><linearGradient
     inkscape:collect="always"
     xlink:href="#linearGradient1492"
     id="linearGradient872"
     gradientUnits="userSpaceOnUse"
     x1="31.034864"
     y1="-84.867767"
     x2="30.584742"
     y2="21.490393" /></defs><sodipodi:namedview
   pagecolor="#ffffff"
   bordercolor="#666666"
   borderopacity="1"
   objecttolerance="10"
   gridtolerance="10"
   guidetolerance="10"
   inkscape:pageopacity="0"
   inkscape:pageshadow="2"
   inkscape:window-width="2518"
   inkscape:window-height="1062"
   id="namedview872"
   showgrid="false"
   inkscape:zoom="0.38669902"
   inkscape:cx="1368.9481"
   inkscape:cy="705.40315"
   inkscape:window-x="1086"
   inkscape:window-y="1086"
   inkscape:window-maximized="1"
   inkscape:current-layer="Layer-1"
   inkscape:document-rotation="0" />
    <g
   id="Layer-1"
   serif:id="Layer 1"
   transform="translate(-13.107642,-90.144)">
        <g
   transform="translate(1009.4,506.362)"
   id="g835"
   style="fill:#0a0a0a;fill-opacity:1"
   inkscape:export-filename="/home/frans/Documents/rust/ferris/ferrisbi.png"
   inkscape:export-xdpi="100"
   inkscape:export-ydpi="100">
            <path
   d="m 0,-7.203 -12.072,-25.006 c 0.063,-0.947 0.111,-1.898 0.111,-2.853 0,-28.346 -29.478,-54.471 -79.069,-75.389 v 17.393 c -4.836,-1.919 -9.871,-3.787 -15.117,-5.593 v -8.108 c -70.874,-25.56 -176.383,-41.778 -294.241,-41.778 -102.973,0 -196.529,12.38 -265.791,32.554 v 28.246 h -0.002 v -34.188 c -70.96,22.55 -114.954,53.877 -114.954,88.515 0,5.46 1.101,10.838 3.217,16.113 l -7.228,12.867 c 0,0 -5.792,7.512 4.406,23.362 8.994,13.977 45.7634,71.238906 69.5424,99.88891 10.214,14.687 25.4256,21.18009 26.0306,20.30509 0.955,-1.386 -14.6356,-26.40709 -34.9196,-57.869094 C -729.5526,64.361906 -732.57,39.42 -739.356,22.884 c 18.942,11.99 130.23,68.029 357.232,67.801 231.994,-0.232 335.115,-72.851 346.433,-82.737 -3.955,15.889 -10.868223,50.682554 -21.645223,73.287554 -17.706,32.330996 -24.12,60.477996 -23.296,61.869996 0.524,0.878 6.565,-8.441 15.476,-23.543 C -44.425223,90.019554 -11.739,30.974 -3.889,16.608 5.007,0.323 0,-7.203 0,-7.203"
   style="fill:#0a0a0a;fill-opacity:1;fill-rule:nonzero"
   id="path833"
   sodipodi:nodetypes="ccsccccsccccscccccccccccccc"
   inkscape:export-xdpi="100"
   inkscape:export-ydpi="100" />
        </g>
        <g
   transform="translate(1079.49,294.885)"
   id="g839"
   inkscape:export-xdpi="100"
   inkscape:export-ydpi="100">
            <path
   d="m 0,204.135 -79.343,-58.446 c -0.745,-2.6 -1.49,-5.201 -2.26,-7.781 l 26.062,-37.754 c 2.66,-3.84 3.196,-8.832 1.469,-13.211 -1.731,-4.358 -5.515,-7.482 -9.99,-8.247 l -44.066,-7.479 c -1.709,-3.485 -3.498,-6.916 -5.294,-10.319 L -94.907,18.51 c 1.903,-4.317 1.505,-9.335 -1.022,-13.254 -2.517,-3.937 -6.786,-6.237 -11.338,-6.058 l -44.724,1.625 c -2.315,-3.016 -4.667,-6.003 -7.067,-8.937 l 10.278,-45.432 c 1.042,-4.612 -0.274,-9.443 -3.487,-12.794 -3.195,-3.339 -7.838,-4.722 -12.253,-3.639 l -43.562,10.709 c -2.82,-2.493 -5.688,-4.953 -8.588,-7.365 l 1.567,-46.641 c 0.168,-4.721 -2.033,-9.208 -5.812,-11.829 -3.777,-2.636 -8.57,-3.032 -12.701,-1.074 l -40.638,19.321 c -3.273,-1.878 -6.565,-3.737 -9.892,-5.537 l -7.181,-45.961 c -0.729,-4.656 -3.724,-8.612 -7.919,-10.418 -4.185,-1.817 -8.976,-1.228 -12.648,1.536 l -36.232,27.185 c -3.569,-1.185 -7.153,-2.32 -10.779,-3.407 l -15.617,-43.585 c -1.588,-4.443 -5.25,-7.706 -9.716,-8.624 -4.45,-0.909 -9.028,0.632 -12.114,4.08 l -30.499,34.119 c -3.685,-0.423 -7.377,-0.81 -11.076,-1.131 l -23.549,-39.676 c -2.384,-4.018 -6.597,-6.464 -11.139,-6.464 -4.529,0 -8.75,2.446 -11.118,6.464 l -23.555,39.676 c -3.701,0.321 -7.408,0.708 -11.088,1.131 l -30.499,-34.119 c -3.09,-3.448 -7.684,-4.989 -12.122,-4.08 -4.46,0.93 -8.128,4.181 -9.707,8.624 l -15.629,43.585 c -3.621,1.087 -7.205,2.23 -10.78,3.407 l -36.22,-27.185 c -3.683,-2.774 -8.478,-3.361 -12.668,-1.536 -4.181,1.806 -7.188,5.762 -7.913,10.418 l -7.186,45.961 c -3.322,1.8 -6.614,3.649 -9.895,5.537 l -40.634,-19.321 c -4.127,-1.966 -8.945,-1.562 -12.704,1.074 -3.773,2.621 -5.98,7.108 -5.81,11.829 l 1.562,46.641 c -2.894,2.412 -5.756,4.872 -8.591,7.365 l -43.554,-10.709 c -4.423,-1.074 -9.062,0.3 -12.265,3.639 -3.221,3.351 -4.526,8.182 -3.491,12.794 l 10.257,45.432 c -2.378,2.945 -4.733,5.921 -7.042,8.937 l -44.724,-1.625 c -4.513,-0.135 -8.821,2.121 -11.343,6.058 -2.527,3.919 -2.91,8.937 -1.029,13.254 l 18.528,42.388 c -1.799,3.403 -3.586,6.834 -5.309,10.319 l -44.063,7.479 c -4.479,0.754 -8.252,3.876 -9.994,8.247 -1.728,4.379 -1.167,9.371 1.474,13.211 l 26.066,37.754 c -0.201,0.667 -0.387,1.339 -0.587,2.008 l -73.696,78.285 c 0,0 -11.296,8.851 5.147,29.654 14.5,18.351 88.951,91.096 128.271,129.205 16.606,19.348 27.984,31.329 29.172,30.293 1.876,-1.645 -7.972,-36.847 -40.682,-78.149 -25.216,-37.056 -57.941,-94.049 -50.267,-100.618 0,0 8.729,-11.081 26.242,-19.057 0.641,0.512 -0.662,-0.507 0,0 0,0 369.595,170.491 712.429,2.884 39.164,-7.025 62.873,13.955 62.873,13.955 8.176,4.74 -12.996,63.344 -30.407,102.137 -23.679,44.05 -27.151,78.422 -25.144,79.614 1.268,0.757 9.883,-12.353 22.172,-33.217 C -67.814,332.649 -10.492,252.1 0,232.534 11.895,210.352 0,204.135 0,204.135"
   style="fill:#f74c00;fill-rule:nonzero"
   id="path837" />
        </g><path
   style="fill:none;stroke:#171717;stroke-width:6.8;stroke-linecap:round;stroke-linejoin:miter;stroke-miterlimit:1.41421;stroke-dasharray:none;stroke-opacity:1"
   d="M 760.7879,343.85756 C 913.23506,288.58833 927.499,295.708 927.499,295.708"
   id="path1442"
   sodipodi:nodetypes="cc"
   inkscape:export-xdpi="100"
   inkscape:export-ydpi="100" />
        <g
   transform="translate(917.896,244.679)"
   id="g843"
   inkscape:export-xdpi="100"
   inkscape:export-ydpi="100">
            <path
   d="m 0,232.466 c 0,0 53.179,-2.466 123.032,-73.462 l 9.898,-21.979 c 0,0 -108.417,-107.848 60.118,-182.291 0,0 -14.755,24.112 -10.426,117.272 0,0 50.815,-17.649 65.714,-99.94 0,0 74.12,97.724 -80.502,189.377 0,0 -72.54,116.289 -174.805,105.15 z"
   style="fill:#f74c00;fill-rule:nonzero"
   id="path841" />
        </g><path
   style="fill:none;stroke:#171717;stroke-width:6.8;stroke-linecap:round;stroke-linejoin:miter;stroke-miterlimit:1.41421;stroke-dasharray:none;stroke-opacity:1"
   d="M 489.92286,341.93405 C 337.4757,286.66482 293.265,286.771 293.265,286.771"
   id="path1444"
   sodipodi:nodetypes="cc"
   inkscape:export-xdpi="100"
   inkscape:export-ydpi="100" />
        <path
   style="fill:none;stroke:#000000;stroke-width:10;stroke-linecap:butt;stroke-linejoin:miter;stroke-miterlimit:1.41421;stroke-dasharray:none;stroke-opacity:1"
   d="m 597.72722,364.48531 c 11.4615,-11.90999 44.65226,-9.05417 51.89161,-2.07772"
   id="path1440"
   sodipodi:nodetypes="cc"
   inkscape:export-xdpi="100"
   inkscape:export-ydpi="100" /><g
   transform="translate(678.83581,421.53718)"
   id="g847"
   style="fill:url(#linearGradient1486);fill-opacity:1"
   inkscape:export-xdpi="100"
   inkscape:export-ydpi="100">
            <path
   d="m -21.309375,-80.018618 c 0,0 69.570714,-36.410522 106.506714,4.032477 0,0 29.022001,53.927 0,80.8870004 0,0 -80.122714,33.7155226 -106.506714,-4.0324777 0,0 -31.658,-29.6589997 0,-80.8869997"
   style="fill:url(#linearGradient870);fill-opacity:1;fill-rule:nonzero"
   id="path845"
   sodipodi:nodetypes="ccccc" />
        </g>
        
        <g
   transform="translate(502.48257,415.45504)"
   id="g855"
   style="fill:url(#linearGradient1500);fill-opacity:1"
   inkscape:export-xdpi="100"
   inkscape:export-ydpi="100">
            <path
   d="m -11.933594,-76.830317 c 0,0 86.77163,-27.206693 110.22021,13.28594 0,0 6.424024,32.799158 -3.193442,54.6065201 -6.532228,14.8116698 -36.13658,28.7621959 -64.508433,30.4282499 0,0 -29.4832561,-2.7214 -43.687377,-14.4697971 C -31.215995,-7.9611787 -46.02546,-23.90234 -11.933594,-76.830317"
   style="fill:url(#linearGradient872);fill-opacity:1;fill-rule:nonzero"
   id="path853"
   sodipodi:nodetypes="ccscsc" />
        </g>
        
        <g
   transform="translate(595.15581,491.75018)"
   id="g863"
   inkscape:export-xdpi="100"
   inkscape:export-ydpi="100">
            
        </g>
        <g
   transform="translate(269.796,270.778)"
   id="g867"
   inkscape:export-xdpi="100"
   inkscape:export-ydpi="100">
            <path
   d="m 0,190.741 c -0.667,0 -1.321,0.049 -1.973,0.101 -26.234,-5.971 -99.973,-25.185 -119.464,-56.363 0,0 99.227,-112.872 -55.86,-185.019 l 18.057,124.878 c 0,0 -47.809,-31.949 -58.126,-101.346 0,0 -116.423,84.494 51.384,165.474 0,0 15.22,57.187 161.349,102.815 l 0.107,-0.435 c 1.471,0.272 2.977,0.435 4.526,0.435 13.808,0 25.003,-11.312 25.003,-25.271 0,-13.956 -11.195,-25.269 -25.003,-25.269"
   style="fill:#f74c00;fill-rule:nonzero"
   id="path865" />
        </g>
    <path
   style="fill:#fdfdfd;fill-opacity:1;stroke:none;stroke-width:1px;stroke-linecap:butt;stroke-linejoin:miter;stroke-opacity:1"
   d="m 634.56007,488.18333 -74.39205,-19.60312 29.81449,87.86437 60.76131,10.08239 51.72944,-45.26127 4.19529,-54.61589 z"
   id="path882"
   sodipodi:nodetypes="ccccccc"
   inkscape:export-xdpi="100"
   inkscape:export-ydpi="100" /><path
   style="fill:#46359d;fill-opacity:1;stroke:none;stroke-width:1px;stroke-linecap:butt;stroke-linejoin:miter;stroke-opacity:1"
   d="m 622.61591,493.8287 8.31801,16.51731 -4.81202,17.67016 -7.3346,48.79692 32.95119,-2.08855 -7.83781,-46.39518 -3.94376,-18.68498 7.73089,-16.13572 -13.12774,-5.32533 z"
   id="path886"
   sodipodi:nodetypes="cccccccccc"
   inkscape:export-xdpi="100"
   inkscape:export-ydpi="100" /><path
   style="fill:#e0def4;fill-opacity:1;stroke:none;stroke-width:1px;stroke-linecap:butt;stroke-linejoin:miter;stroke-opacity:1"
   d="m 634.56007,488.18333 -13.57358,26.80303 -63.74132,-47.72007 z"
   id="path888"
   sodipodi:nodetypes="cccc"
   inkscape:export-xdpi="100"
   inkscape:export-ydpi="100" /><path
   style="fill:none;stroke:#c6c6c6;stroke-width:5.53701;stroke-linecap:butt;stroke-linejoin:miter;stroke-miterlimit:1.41421;stroke-dasharray:none;stroke-opacity:1"
   d="m 247.655,355.783 c -3.83954,-2.08885 -9.56889,5.2203 -9.53957,8.41303 0.12818,13.95856 26.73932,26.94488 32.60111,20.84735 7.63375,-7.94076 -11.97522,-21.80956 -15.75394,-12.21769 -5.40071,13.70909 33.17002,50.15325 47.05583,37.35674 5.8382,-5.38021 -9.81213,-22.53596 -19.49061,-12.20384 -8.55238,9.12997 41.39166,45.15991 51.24879,33.1313 7.24791,-8.84459 -9.91086,-21.78603 -17.43264,-9.72806 -7.00038,11.22213 36.70019,40.32653 46.8543,27.17182 7.54278,-9.77173 -3.41214,-22.94004 -13.83466,-10.44142 -11.20476,13.43667 33.93077,66.6521 38.16686,33.39228 1.30671,-10.25973 0.68523,-6.87945 -3.52906,-3.04485"
   id="path910"
   sodipodi:nodetypes="cssssssssssc"
   inkscape:export-xdpi="100"
   inkscape:export-ydpi="100" /><g
   transform="translate(1079.49,294.885)"
   id="g880"
   inkscape:export-xdpi="100"
   inkscape:export-ydpi="100">
            <path
   d="m 0,204.135 -79.343,-58.446 c -0.745,-2.6 -1.49,-5.201 -2.26,-7.781 -92.54036,22.13185 -178.76798,15.32135 -274.23847,22.59483 -21.26653,1.6202 -85.0689,117.05842 -88.51913,117.07696 -4.09166,0.022 -66.26639,-107.50044 -82.53509,-107.52288 -122.53322,-0.16902 -190.47405,-0.87802 -336.76531,-32.14891 -0.201,0.667 -0.387,1.339 -0.587,2.008 l -73.696,78.285 c 0,0 -11.296,8.851 5.147,29.654 14.5,18.351 88.951,91.096 128.271,129.205 16.606,19.348 27.984,31.329 29.172,30.293 1.876,-1.645 -7.972,-36.847 -40.682,-78.149 -25.216,-37.056 -57.941,-94.049 -50.267,-100.618 0,0 8.729,-11.081 26.242,-19.057 0.641,0.512 -0.662,-0.507 0,0 0,0 369.595,170.491 712.429,2.884 39.164,-7.025 62.873,13.955 62.873,13.955 8.176,4.74 -12.996,63.344 -30.407,102.137 -23.679,44.05 -27.151,78.422 -25.144,79.614 1.268,0.757 9.883,-12.353 22.172,-33.217 C -67.814,332.649 -10.492,252.1 0,232.534 11.895,210.352 0,204.135 0,204.135"
   style="fill:#000000;fill-opacity:1;fill-rule:nonzero"
   id="path878"
   sodipodi:nodetypes="cccssscccccccccccccccsc" />
        </g><path
   style="fill:#e0def4;fill-opacity:1;stroke:none;stroke-width:1px;stroke-linecap:butt;stroke-linejoin:miter;stroke-opacity:1"
   d="m 634.56007,488.18333 14.52767,26.58652 57.58081,-48.12004 z"
   id="path890"
   sodipodi:nodetypes="cccc"
   inkscape:export-xdpi="100"
   inkscape:export-ydpi="100" /><g
   transform="translate(917.896,244.679)"
   id="g894"
   inkscape:export-xdpi="100"
   inkscape:export-ydpi="100">
            <path
   d="m 0,232.466 c 0,0 53.179,-2.466 123.032,-73.462 9.898,-21.979 48.96691,-6.27494 44.802,2.439 0,0 -72.54,116.289 -174.805,105.15 z"
   style="fill:#000000;fill-opacity:1;fill-rule:nonzero"
   id="path892"
   sodipodi:nodetypes="ccccc" />
        </g><g
   transform="translate(269.796,270.778)"
   id="g898"
   inkscape:export-xdpi="100"
   inkscape:export-ydpi="100">
            <path
   d="m 0,190.741 c -0.667,0 -1.321,0.049 -1.973,0.101 -26.234,-5.971 -99.973,-25.185 -119.464,-56.363 -13.0212,-7.81243 -33.38971,4.00558 -34.16197,18.38846 0,0 4.83697,42.78554 150.96597,88.41354 l 0.107,-0.435 c 1.471,0.272 2.977,0.435 4.526,0.435 13.808,0 25.003,-11.312 25.003,-25.271 0,-13.956 -11.195,-25.269 -25.003,-25.269"
   style="fill:#000000;fill-opacity:1;fill-rule:nonzero"
   id="path896"
   sodipodi:nodetypes="ccccccssc" />
        </g></g>
</svg>
