<?xml version="1.0" encoding="UTF-8" standalone="no"?>
<svg
   xmlns:serif="http://www.serif.com/"
   xmlns:dc="http://purl.org/dc/elements/1.1/"
   xmlns:cc="http://creativecommons.org/ns#"
   xmlns:rdf="http://www.w3.org/1999/02/22-rdf-syntax-ns#"
   xmlns:svg="http://www.w3.org/2000/svg"
   xmlns="http://www.w3.org/2000/svg"
   xmlns:sodipodi="http://sodipodi.sourceforge.net/DTD/sodipodi-0.dtd"
   xmlns:inkscape="http://www.inkscape.org/namespaces/inkscape"
   width="100%"
   height="100%"
   viewBox="0 0 1200 800"
   version="1.1"
   xml:space="preserve"
   style="fill-rule:evenodd;clip-rule:evenodd;stroke-linejoin:round;stroke-miterlimit:1.41421;"
   id="svg1365"
   sodipodi:docname="ferris_zombie.svg"
   inkscape:version="0.92.2 2405546, 2018-03-11"><metadata
   id="metadata1371"><rdf:RDF><cc:Work
       rdf:about=""><dc:format>image/svg+xml</dc:format><dc:type
         rdf:resource="http://purl.org/dc/dcmitype/StillImage" /><dc:title></dc:title></cc:Work></rdf:RDF></metadata><defs
   id="defs1369" /><sodipodi:namedview
   pagecolor="#ffffff"
   bordercolor="#666666"
   borderopacity="1"
   objecttolerance="10"
   gridtolerance="10"
   guidetolerance="10"
   inkscape:pageopacity="0"
   inkscape:pageshadow="2"
   inkscape:window-width="2530"
   inkscape:window-height="1074"
   id="namedview1367"
   showgrid="false"
   inkscape:zoom="0.72493734"
   inkscape:cx="912.53996"
   inkscape:cy="348.5314"
   inkscape:window-x="1923"
   inkscape:window-y="1083"
   inkscape:window-maximized="0"
   inkscape:current-layer="Layer-1" />
    <g
   id="Layer-1"
   serif:id="Layer 1">
        <g
   transform="matrix(1,0,0,1,1009.4,506.362)"
   id="g1330"
   style="fill:#501900;fill-opacity:1">
            <path
   d="M0,-7.203L-12.072,-32.209C-12.009,-33.156 -11.961,-34.107 -11.961,-35.062C-11.961,-63.408 -41.439,-89.533 -91.03,-110.451L-91.03,-93.058C-95.866,-94.977 -100.901,-96.845 -106.147,-98.651L-106.147,-106.759C-177.021,-132.319 -282.53,-148.537 -400.388,-148.537C-503.361,-148.537 -596.917,-136.157 -666.179,-115.983L-666.179,-87.737L-666.181,-87.737L-666.181,-121.925C-737.141,-99.375 -781.135,-68.048 -781.135,-33.41C-781.135,-27.95 -780.034,-22.572 -777.918,-17.297L-785.146,-4.43C-785.146,-4.43 -790.938,3.082 -780.74,18.932C-771.746,32.909 -726.692,87.617 -702.913,116.267C-692.699,130.954 -685.772,140.001 -685.167,139.126C-684.212,137.74 -691.518,110.165 -711.802,78.703C-721.268,61.808 -732.57,39.42 -739.356,22.884C-720.414,34.874 -609.126,90.913 -382.124,90.685C-150.13,90.453 -47.009,17.834 -35.691,7.948C-39.646,23.837 -53.159,55.981 -63.936,78.586C-81.642,110.917 -88.056,139.064 -87.232,140.456C-86.708,141.334 -80.667,132.015 -71.756,116.913C-51.025,87.37 -11.739,30.974 -3.889,16.608C5.007,0.323 0,-7.203 0,-7.203"
   style="fill:#501900;fill-rule:nonzero;fill-opacity:1"
   id="path1328" />
        </g>
        <g
   transform="matrix(1,0,0,1,1079.49,294.885)"
   id="g1334"
   style="fill:#4d6b43;fill-opacity:1">
            <path
   d="M0,204.135L-79.343,145.689C-80.088,143.089 -80.833,140.488 -81.603,137.908L-55.541,100.154C-52.881,96.314 -52.345,91.322 -54.072,86.943C-55.803,82.585 -59.587,79.461 -64.062,78.696L-108.128,71.217C-109.837,67.732 -111.626,64.301 -113.422,60.898L-94.907,18.51C-93.004,14.193 -93.402,9.175 -95.929,5.256C-98.446,1.319 -102.715,-0.981 -107.267,-0.802L-151.991,0.823C-154.306,-2.193 -156.658,-5.18 -159.058,-8.114L-148.78,-53.546C-147.738,-58.158 -149.054,-62.989 -152.267,-66.34C-155.462,-69.679 -160.105,-71.062 -164.52,-69.979L-208.082,-59.27C-210.902,-61.763 -213.77,-64.223 -216.67,-66.635L-215.103,-113.276C-214.935,-117.997 -217.136,-122.484 -220.915,-125.105C-224.692,-127.741 -229.485,-128.137 -233.616,-126.179L-274.254,-106.858C-277.527,-108.736 -280.819,-110.595 -284.146,-112.395L-291.327,-158.356C-292.056,-163.012 -295.051,-166.968 -299.246,-168.774C-303.431,-170.591 -308.222,-170.002 -311.894,-167.238L-348.126,-140.053C-351.695,-141.238 -355.279,-142.373 -358.905,-143.46L-374.522,-187.045C-376.11,-191.488 -379.772,-194.751 -384.238,-195.669C-388.688,-196.578 -393.266,-195.037 -396.352,-191.589L-426.851,-157.47C-430.536,-157.893 -434.228,-158.28 -437.927,-158.601L-461.476,-198.277C-463.86,-202.295 -468.073,-204.741 -472.615,-204.741C-477.144,-204.741 -481.365,-202.295 -483.733,-198.277L-507.288,-158.601C-510.989,-158.28 -514.696,-157.893 -518.376,-157.47L-548.875,-191.589C-551.965,-195.037 -556.559,-196.578 -560.997,-195.669C-565.457,-194.739 -569.125,-191.488 -570.704,-187.045L-586.333,-143.46C-589.954,-142.373 -593.538,-141.23 -597.113,-140.053L-633.333,-167.238C-637.016,-170.012 -641.811,-170.599 -646.001,-168.774C-650.182,-166.968 -653.189,-163.012 -653.914,-158.356L-661.1,-112.395C-664.422,-110.595 -667.714,-108.746 -670.995,-106.858L-711.629,-126.179C-715.756,-128.145 -720.574,-127.741 -724.333,-125.105C-728.106,-122.484 -730.313,-117.997 -730.143,-113.276L-728.581,-66.635C-731.475,-64.223 -734.337,-61.763 -737.172,-59.27L-780.726,-69.979C-785.149,-71.053 -789.788,-69.679 -792.991,-66.34C-796.212,-62.989 -797.517,-58.158 -796.482,-53.546L-786.225,-8.114C-788.603,-5.169 -790.958,-2.193 -793.267,0.823L-837.991,-0.802C-842.504,-0.937 -846.812,1.319 -849.334,5.256C-851.861,9.175 -852.244,14.193 -850.363,18.51L-831.835,60.898C-833.634,64.301 -835.421,67.732 -837.144,71.217L-881.207,78.696C-885.686,79.45 -889.459,82.572 -891.201,86.943C-892.929,91.322 -892.368,96.314 -889.727,100.154L-863.661,137.908C-863.862,138.575 -864.048,139.247 -864.248,139.916L-937.944,218.201C-937.944,218.201 -949.24,227.052 -932.797,247.855C-918.297,266.206 -843.846,338.951 -804.526,377.06C-787.92,396.408 -776.542,408.389 -775.354,407.353C-773.478,405.708 -783.326,370.506 -816.036,329.204C-841.252,292.148 -873.977,235.155 -866.303,228.586C-866.303,228.586 -857.574,217.505 -840.061,209.529C-839.42,210.041 -840.723,209.022 -840.061,209.529C-840.061,209.529 -470.466,380.02 -127.632,212.413C-88.468,205.388 -64.759,226.368 -64.759,226.368C-56.583,231.108 -77.755,289.712 -95.166,328.505C-118.845,372.555 -122.317,406.927 -120.31,408.119C-119.042,408.876 -110.427,395.766 -98.138,374.902C-67.814,332.649 -10.492,252.1 0,232.534C11.895,210.352 0,204.135 0,204.135"
   style="fill:#4d6b43;fill-rule:nonzero;fill-opacity:1"
   id="path1332" />
        </g>
        <g
   transform="matrix(1,0,0,1,917.896,244.679)"
   id="g1338"
   style="fill:#4d6b43;fill-opacity:1">
            <path
   d="M0,232.466C0,232.466 53.179,230 123.032,159.004L132.93,137.025C132.93,137.025 24.513,29.177 193.048,-45.266C193.048,-45.266 178.293,-21.154 182.622,72.006C182.622,72.006 233.437,54.357 248.336,-27.934C248.336,-27.934 322.456,69.79 167.834,161.443C167.834,161.443 95.294,277.732 -6.971,266.593L0,232.466Z"
   style="fill:#4d6b43;fill-rule:nonzero;fill-opacity:1"
   id="path1336" />
        </g>
        <g
   transform="matrix(1,0,0,1,676.997,488.361)"
   id="g1342">
            <path
   d="M0,-78.192C0,-78.192 36.935,-118.635 73.871,-78.192C73.871,-78.192 102.893,-24.265 73.871,2.695C73.871,2.695 26.384,40.443 0,2.695C0,2.695 -31.658,-26.964 0,-78.192"
   style="fill-rule:nonzero;"
   id="path1340" />
        </g>
        
        <g
   transform="matrix(1,0,0,1,512.148,482.736)"
   id="g1350">
            <path
   d="M0,-83.609C0,-83.609 63.355,-111.661 80.648,-49.047C80.648,-49.047 98.762,23.933 28.618,28.052C28.618,28.052 -60.826,10.824 0,-83.609"
   style="fill-rule:nonzero;"
   id="path1348" />
        </g>
        
        <g
   transform="matrix(1,0,0,1,593.317,576.574)"
   id="g1358">
            
        <path
   d="m 2.2484044,-24.153641 c 23.9318416,25.4379503 49.7913516,22.9879903 80.7960016,6.484 0,0 -2.738,-13.006 -13.279,-22.769 0,0 -27.79,-30.47 -59.673,2.533 0,0 -5.2170016,5.629 -7.8440016,13.752"
   style="clip-rule:evenodd;fill-rule:nonzero;stroke-linejoin:round;stroke-miterlimit:1.41420996"
   id="path1128"
   inkscape:connector-curvature="0"
   sodipodi:nodetypes="ccccc" /><path
   style="clip-rule:evenodd;fill:#ffffff;fill-opacity:1;fill-rule:evenodd;stroke:none;stroke-width:1px;stroke-linecap:butt;stroke-linejoin:miter;stroke-miterlimit:1.41420996;stroke-opacity:1"
   d="m 9.7284364,-37.483741 c 3.5899296,16.15467 3.9063796,20.37751 3.9063796,20.37751 l 1.76613,-25.87779 c -1.95037,1.79013 -3.92587,3.56198 -5.6725096,5.50028 z"
   id="path1943"
   inkscape:connector-curvature="0"
   sodipodi:nodetypes="cccc" /><path
   style="clip-rule:evenodd;fill:#ffffff;fill-opacity:1;fill-rule:evenodd;stroke:none;stroke-width:1px;stroke-linecap:butt;stroke-linejoin:miter;stroke-miterlimit:1.41420996;stroke-opacity:1"
   d="m 72.691776,-37.547771 c -3.58993,16.15467 -3.90638,20.37752 -3.90638,20.37752 l -1.76613,-25.87779 c 1.95037,1.79012 3.92587,3.56198 5.67251,5.50027 z"
   id="path1943-7"
   inkscape:connector-curvature="0"
   sodipodi:nodetypes="cccc" /><path
   style="clip-rule:evenodd;fill:#ffffff;fill-opacity:1;fill-rule:evenodd;stroke:none;stroke-width:1px;stroke-linecap:butt;stroke-linejoin:miter;stroke-miterlimit:1.41420996;stroke-opacity:1"
   d="m 60.617484,-47.411223 c -3.58993,16.15467 -4.897845,22.489772 -4.897845,22.489772 l -1.76613,-25.87779 c 1.389977,0.583119 4.917335,1.449728 6.663975,3.388018 z"
   id="path1943-7-0"
   inkscape:connector-curvature="0"
   sodipodi:nodetypes="cccc" /><path
   style="clip-rule:evenodd;fill:#ffffff;fill-opacity:1;fill-rule:evenodd;stroke:none;stroke-width:1px;stroke-linecap:butt;stroke-linejoin:miter;stroke-miterlimit:1.41420996;stroke-opacity:1"
   d="m 44.293946,-53.087603 c -3.58994,16.15467 -3.044241,26.110773 -3.044241,26.110773 l -4.82674,-26.007112 c 2.079695,-0.365238 5.219081,-1.050486 7.870981,-0.103661 z"
   id="path1943-7-0-4"
   inkscape:connector-curvature="0"
   sodipodi:nodetypes="cccc" /><path
   style="clip-rule:evenodd;fill:#ffffff;fill-opacity:1;fill-rule:evenodd;stroke:none;stroke-width:1px;stroke-linecap:butt;stroke-linejoin:miter;stroke-miterlimit:1.41420996;stroke-opacity:1"
   d="m 20.731955,-47.009492 c 3.58994,16.15467 4.89785,22.48977 4.89785,22.48977 l 1.76613,-25.87779 c -1.38998,0.58312 -4.91733,1.44973 -6.66398,3.38802 z"
   id="path1943-7-0-0"
   inkscape:connector-curvature="0"
   sodipodi:nodetypes="cccc" /></g>
        <g
   transform="matrix(1,0,0,1,269.796,270.778)"
   id="g1362"
   style="fill:#4d6b43;fill-opacity:1">
            <path
   d="M0,190.741C-0.667,190.741 -1.321,190.79 -1.973,190.842C-28.207,184.871 -101.946,165.657 -121.437,134.479C-121.437,134.479 -22.21,21.607 -177.297,-50.54L-159.24,74.338C-159.24,74.338 -207.049,42.389 -217.366,-27.008C-217.366,-27.008 -333.789,57.486 -165.982,138.466C-165.982,138.466 -150.762,195.653 -4.633,241.281L-4.526,240.846C-3.055,241.118 -1.549,241.281 0,241.281C13.808,241.281 25.003,229.969 25.003,216.01C25.003,202.054 13.808,190.741 0,190.741"
   style="fill:#4d6b43;fill-rule:nonzero;fill-opacity:1"
   id="path1360" />
        </g>
    <path
   transform="translate(593.317,576.574)"
   style="fill-rule:evenodd;clip-rule:evenodd;stroke-linejoin:miter;stroke-miterlimit:1.41420996;fill:#a00000;fill-opacity:1;stroke:none;stroke-width:1px;stroke-linecap:butt;stroke-opacity:1"
   d="m 572.915,-359.829 c 0,0 4.7363,3.80026 5.6594,11.87718 0.9231,8.07693 -4.8462,5.76923 -4.8462,14.53847 0,8.76923 5.3077,11.07692 0,22.84615 -5.3077,11.76923 1.8462,9.46154 -1.3846,23.53846 -3.2308,14.07692 -3.4615,16.15385 -13.8461,20.07692 -10.3847,3.92308 -22.3847,4.61539 -25.6154,14.76923 -3.2308,10.15385 -4.3846,12.69231 -19.8462,12 -15.4615,-0.6923 -27.2307,0.92308 -22.8461,-11.53846 4.3846,-12.46154 7.3846,-18 4.3846,-28.84615 -3,-10.84616 -9.9231,-14.30769 -6.6923,-24.92308 3.2307,-10.61538 8.0769,-17.76923 9.9231,-26.76923 1.8461,-9 -2.5385,-15 1.8461,-22.15384 4.3846,-7.15385 13.6154,-15.46154 14.5385,-17.76924 0.923,-2.30769 3.4372,-4.97841 3.4372,-4.97841 -9.3884,43.13644 -12.7296,82.13534 -10.426,117.272 42.1092,-24.8556 47.7644,-64.97105 65.714,-99.94 z"
   id="path1937"
   inkscape:connector-curvature="0"
   sodipodi:nodetypes="cssssccsssccscccc" /><path
   transform="translate(593.317,576.574)"
   style="fill-rule:evenodd;clip-rule:evenodd;stroke-linejoin:miter;stroke-miterlimit:1.41420996;fill:#a00000;fill-opacity:1;stroke:none;stroke-width:1px;stroke-linecap:butt;stroke-opacity:1"
   d="m -500.818,-356.336 c 12.58795,16.14351 16.50423,29.8505 19.44144,38.9885 2.93722,9.13799 12.07521,6.85349 14.68607,17.94963 2.61085,11.09614 -1.30543,8.15892 -0.65272,23.82406 0.65272,15.66513 2.2845,16.64421 -1.63178,27.74034 -3.91629,11.09614 0.32635,9.46435 -2.2845,21.53956 -2.61086,12.07521 1.95814,23.4977 -13.05428,13.38064 -15.01242,-10.11707 -6.8535,-8.48528 -23.4977,-17.29692 -16.64421,-8.81164 -18.60235,-6.20078 -17.62328,-18.92871 0.97907,-12.72792 1.30543,-16.31784 -7.17985,-24.15041 -8.48528,-7.83257 -12.72793,-4.89536 -10.44343,-14.35971 2.2845,-9.46435 0.97907,-21.2132 -2.2845,-23.4977 -3.26356,-2.2845 -3.26356,-3.91628 -1.30542,-9.46435 1.95814,-5.54807 5.76095,-12.19293 5.76095,-12.19293 7.60622,45.44276 37.60894,82.28701 58.126,101.346 z"
   id="path1939"
   inkscape:connector-curvature="0"
   sodipodi:nodetypes="ccssssssssscsccc" /><path
   transform="translate(593.317,576.574)"
   style="fill-rule:evenodd;clip-rule:evenodd;stroke-linejoin:miter;stroke-miterlimit:1.41420996;fill:#ac1010;fill-opacity:1;stroke:none;stroke-width:1px;stroke-linecap:butt;stroke-opacity:1"
   d="m -89.90147,-86.585135 c 5.221723,15.01242 1.785073,12.04722 6.517243,26.73328 4.73218,14.68606 7.50621,6.36396 9.95389,19.41824 2.44768,13.05428 6.8535,3.42675 10.44342,17.4601 3.58993,14.03335 8.97482,9.62753 9.79071,15.66513 0.8159,6.03761 7.17986,7.50621 9.95389,-2.12132 2.77403,-9.62753 4.24264,-9.30117 10.93296,-20.07095 6.69032,-10.76978 1.30543,-10.44343 6.0376,-19.09188 4.73218,-8.64846 3.42675,-7.34304 6.36396,-16.64421 2.93722,-9.30117 6.28817,-15.54976 6.28817,-15.54976 0,0 -14.38367,14.47402 -38.75829,14.53896 -19.64386,-2.30048 -37.523553,-20.33759 -37.523553,-20.33759 z"
   id="path1960"
   inkscape:connector-curvature="0"
   sodipodi:nodetypes="cssscssssccc" /><path
   transform="translate(593.317,576.574)"
   style="fill-rule:evenodd;clip-rule:evenodd;stroke-linejoin:miter;stroke-miterlimit:1.41420996;fill:#ac1010;fill-opacity:1;stroke:none;stroke-width:1px;stroke-linecap:butt;stroke-opacity:1"
   d="m 87.137293,-81.065055 c 3.58993,9.95388 11.09614,20.88684 10.93296,30.02484 -0.16318,9.13799 0.81589,0.32635 4.405817,14.19653 3.58993,13.87017 6.0376,8.3221 7.50621,18.76552 1.46861,10.44343 2.89134,26.39946 12.72792,18.60235 6.65214,-5.2729 7.01668,2.61086 12.07521,-14.84924 5.05853,-17.4601 1.46861,-13.707 8.81164,-29.86167 7.34303,-16.15467 9.46435,-13.05427 9.13799,-21.2132 -0.32635,-8.15892 -0.97907,-4.73218 3.26357,-13.70699 4.24264,-8.97482 4.48741,-9.46435 4.48741,-9.46435 -18.56966,14.49339 -33.65351,19.56753 -47.31186,19.78744 -9.47413,-0.52976 -18.162117,-4.94171 -26.036867,-12.28123 z"
   id="path1962"
   inkscape:connector-curvature="0"
   sodipodi:nodetypes="csssssscsccc" /></g>
</svg>