<?xml version="1.0" encoding="UTF-8" standalone="no"?>
<svg
   width="776.00952"
   height="776.00952"
   viewBox="0 0 776.00952 776.00952"
   version="1.1"
   xml:space="preserve"
   style="clip-rule:evenodd;fill-rule:evenodd;stroke-linejoin:round;stroke-miterlimit:1.41421"
   id="svg862"
   sodipodi:docname="ferrissleep.svg"
   inkscape:version="1.1 (c4e8f9ed74, 2021-05-24)"
   inkscape:export-filename="/home/frans/Documents/rust/ferris/ferrissleep.png"
   inkscape:export-xdpi="100"
   inkscape:export-ydpi="100"
   xmlns:inkscape="http://www.inkscape.org/namespaces/inkscape"
   xmlns:sodipodi="http://sodipodi.sourceforge.net/DTD/sodipodi-0.dtd"
   xmlns="http://www.w3.org/2000/svg"
   xmlns:svg="http://www.w3.org/2000/svg"
   xmlns:serif="http://www.serif.com/"><defs
   id="defs866" /><sodipodi:namedview
   id="namedview864"
   pagecolor="#ffffff"
   bordercolor="#666666"
   borderopacity="1.0"
   inkscape:pageshadow="2"
   inkscape:pageopacity="0.0"
   inkscape:pagecheckerboard="0"
   showgrid="false"
   inkscape:zoom="0.61400439"
   inkscape:cx="-328.98788"
   inkscape:cy="220.68246"
   inkscape:window-width="2530"
   inkscape:window-height="1434"
   inkscape:window-x="3"
   inkscape:window-y="3"
   inkscape:window-maximized="1"
   inkscape:current-layer="g831"
   fit-margin-top="0"
   fit-margin-left="0"
   fit-margin-right="0"
   fit-margin-bottom="0" />
    <g
   id="Layer-1"
   serif:id="Layer 1"
   transform="translate(-183.70065,58.879063)">
        <g
   transform="translate(1009.4,506.362)"
   id="g827">
            
        </g>
        <g
   transform="translate(1094.7855,312.32701)"
   id="g831">
            <path
   d="m -145.16977,-24.243675 c -1.72535,-2.082837 -3.45109,-4.166591 -5.19132,-6.22108 l 8.72972,-45.037588 c 0.89635,-4.584515 -0.61504,-9.372319 -3.95351,-12.690872 -3.33371,-3.297711 -8.05305,-4.641552 -12.45912,-3.547314 l -43.36559,10.824658 c -2.96338,-2.506845 -5.97838,-4.932135 -8.98857,-7.328968 l -0.0423,-46.255231 c 0.0116,-4.71781 -2.36581,-9.15479 -6.25259,-11.73107 -3.88483,-2.59679 -8.71792,-2.99128 -12.81587,-1.00143 l -40.31657,19.4281 c -3.33037,-1.83415 -6.68301,-3.6269 -10.05835,-5.35184 l -8.80862,-45.73961 c -0.89545,-4.64268 -4.03874,-8.54013 -8.32608,-10.32095 -4.26603,-1.77705 -9.07389,-1.18152 -12.68374,1.58146 l -35.6084,27.28319 c -3.58318,-1.1525 -7.19709,-2.25552 -10.82106,-3.30174 l -17.27309,-43.35296 c -1.73978,-4.39195 -5.55577,-7.6193 -10.06876,-8.50439 -4.51718,-0.89962 -9.06654,0.66018 -12.06526,4.11078 l -29.47551,33.99915 c -3.75146,-0.40745 -7.51269,-0.78986 -11.28232,-1.1042 l -25.01373,-39.22108 c -2.53539,-3.97261 -6.86571,-6.39507 -11.43285,-6.36673 -4.56241,0.0143 -8.71483,2.47555 -10.9698,6.48035 l -22.28511,39.43546 c -3.74463,0.3461 -7.48294,0.74401 -11.24046,1.20274 l -31.78828,-33.66079 c -3.23681,-3.43293 -7.90015,-4.95304 -12.35935,-4.00256 -4.44093,0.9523 -8.01638,4.20021 -9.46019,8.59652 l -14.25219,43.48759 c -3.54523,1.09063 -7.08244,2.21706 -10.59958,3.40674 l -37.48623,-26.89837 c -3.7955,-2.72433 -8.63585,-3.27503 -12.79645,-1.45316 -4.14868,1.81666 -7.0341,5.75038 -7.59156,10.38082 l -5.66229,45.79259 c -3.26146,1.77858 -6.50194,3.62002 -9.70325,5.48361 l -41.62361,-19.02025 c -4.21357,-1.91901 -9.03992,-1.48787 -12.74063,1.12495 -3.71245,2.64089 -5.7684,7.09019 -5.43264,11.79346 l 3.1661,46.194088 c -2.88092,2.448166 -5.70548,4.932788 -8.50817,7.444945 l -44.08285,-10.373731 c -4.48643,-1.063745 -9.11423,0.321904 -12.22035,3.674333 -3.10549,3.331414 -4.27316,8.161375 -3.06968,12.717206 l 11.85317,44.983936 c -2.32103,2.981359 -4.59493,5.99557 -6.8431,9.041093 l -44.97182,-1.399565 c -4.56903,-0.145499 -8.8204,2.157157 -11.2064,6.079603 -2.40484,3.9143203 -2.6267,8.9097979 -0.5773,13.16617074 l 20.13933,42.09786226 c -1.68349,3.37029 -3.31841,6.771713 -4.91536,10.192534 l -44.1922,7.660519 c -4.48238,0.790328 -8.1807,3.909731 -9.7754,8.253122 -1.60638,4.361604 -0.864,9.310387 1.93404,13.119947 l 27.61924,37.502677 c -0.99703,3.65155 -1.96054,7.32228 -2.86588,11.01119 l -41.6202,16.45102 c -4.18818,1.68657 -7.2295,5.48114 -7.96053,10.09916 -0.74282,4.60353 0.91915,9.35378 4.37382,12.55377 l 33.97469,31.39665 c -0.28293,3.83884 -0.54364,7.69853 -0.72406,11.58201 l -37.36294,24.52538 c -3.80044,2.48729 -6.00432,6.86054 -5.84676,11.56324 0.1736,4.70441 2.68987,9.05219 6.64938,11.51038 l 39.02093,24.12816 c 0.0834,0.69162 0.1826,1.38179 0.26774,2.07484 -0.68697,2.25284 1.67521,4.65863 1.207,6.68682 -5.17632,22.42277 -5.76467,30.91821 -7.65846,39.25596 -1.43336,6.31063 0.32386,12.3878 3.96443,14.01882 3.73697,1.67421 4.20337,1.85145 8.36172,1.33439 9.57217,-1.19025 22.34601,-2.51791 36.20618,-5.72838 0.79254,0.21189 7.18825,-1.70094 7.99803,-1.50205 0,0 406.94577,7.92348 653.76089,-283.125572"
   style="fill:#f74c00;fill-rule:nonzero"
   id="path829"
   sodipodi:nodetypes="cccccccccccccccccccccccccccccccccscccccccccccccccccccccccccccccccccssssccc"
   inkscape:export-filename="/home/frans/Documents/rust/ferris/path829.png"
   inkscape:export-xdpi="100"
   inkscape:export-ydpi="100" />
        </g>
        
        <g
   transform="rotate(-23.648027,1259.5225,-1246.5902)"
   id="g839">
            <path
   d="m 0,-78.192 c 0,0 36.935,-40.443 73.871,0 0,0 29.022,53.927 0,80.887 0,0 -47.487,37.748 -73.871,0 0,0 -31.658,-29.659 0,-80.887"
   style="fill-rule:nonzero"
   id="path837" />
        </g>
        <g
   transform="rotate(-23.648027,1087.215,-1317.1302)"
   id="g843">
            <path
   d="m 0,0.004 c 0,15.746 -9.282,28.514 -20.732,28.514 -11.448,0 -20.73,-12.768 -20.73,-28.514 0,-15.75 9.282,-28.518 20.73,-28.518 C -9.282,-28.514 0,-15.746 0,0.004"
   style="fill:#ffffff;fill-rule:nonzero"
   id="path841" />
        </g>
        <g
   transform="rotate(-23.648027,1328.5125,-850.05835)"
   id="g847">
            <path
   d="m 0,-83.609 c 0,0 63.355,-28.052 80.648,34.562 0,0 18.114,72.98 -52.03,77.099 0,0 -89.444,-17.228 -28.618,-111.661"
   style="fill-rule:nonzero"
   id="path845" />
        </g>
        <g
   transform="rotate(-23.648027,1177.5835,-897.79015)"
   id="g851">
            <path
   d="m 0,0.002 c 0,16.239 -9.572,29.409 -21.381,29.409 -11.804,0 -21.379,-13.17 -21.379,-29.409 0,-16.244 9.575,-29.411 21.379,-29.411 C -9.572,-29.409 0,-16.242 0,0.002"
   style="fill:#ffffff;fill-rule:nonzero"
   id="path849" />
        </g>
        <g
   transform="rotate(-23.648027,1430.5846,-1067.8664)"
   id="g855">
            <path
   d="m 6.0957833,-24.498007 80.7959997,-6.484 c 0,0 -2.738,13.006 -13.279,22.7690001 0,0 -27.79,30.4699999 -59.673,-2.5330001 0,0 -5.2169997,-5.629 -7.8439997,-13.752"
   style="fill-rule:nonzero"
   id="path853" />
        </g>
        <g
   transform="rotate(-14.337621,2258.3804,-1614.386)"
   id="g859">
            
        </g><path
   style="fill:#007fe1;fill-opacity:1;stroke:none;stroke-width:1px;stroke-linecap:butt;stroke-linejoin:miter;stroke-opacity:1"
   d="m 263.19166,735.75576 715.23725,3.62272 6.29595,-411.05999 c -275.30897,70.23569 -526.436,186.04231 -721.5332,407.43727 z"
   id="path3792"
   sodipodi:nodetypes="cccc" />
    <path
   style="fill:none;stroke:#252525;stroke-width:35.6;stroke-linecap:butt;stroke-linejoin:miter;stroke-miterlimit:1.41421;stroke-dasharray:none;stroke-opacity:1"
   d="M 263.19166,735.75576 C 397.43723,534.01821 821.46749,334.69652 984.72486,328.31849"
   id="path1531"
   sodipodi:nodetypes="cc" /><g
   transform="rotate(166.9821,498.62308,289.14401)"
   id="g6215"
   style="fill:#ba3900;fill-opacity:1">
            <path
   d="M 127.12019,170.3228 132.93,137.025 c 0,0 -108.417,-107.848 60.118,-182.291 0,0 -14.755,24.112 -10.426,117.272 0,0 50.815,-17.649 65.714,-99.94 0,0 74.12,97.724 -80.502,189.377 -28.0956,43.65304 -67.52916,36.92238 -40.71381,8.8798 z"
   style="fill:#ba3900;fill-opacity:1;fill-rule:nonzero"
   id="path6213"
   sodipodi:nodetypes="ccccccc" />
        </g><g
   transform="rotate(166.9821,495.93328,283.71783)"
   id="g835">
            <path
   d="m 123.032,159.004 9.898,-21.979 c 0,0 -108.417,-107.848 60.118,-182.291 0,0 -14.755,24.112 -10.426,117.272 0,0 50.815,-17.649 65.714,-99.94 0,0 74.12,97.724 -80.502,189.377 -28.0956,43.65304 -71.617357,25.60358 -44.802,-2.439 z"
   style="fill:#f74c00;fill-rule:nonzero"
   id="path833"
   sodipodi:nodetypes="ccccccc" />
        </g><path
   d="m 384.33562,588.43388 c 0,0 23.24312,160.27465 182.28476,97.3229 l -103.0671,-72.7856 c 0,0 56.07508,-12.72891 113.54559,27.5144 0,0 16.73132,-145.02516 -157.47108,-78.9156"
   style="clip-rule:evenodd;fill:#ba3900;fill-opacity:1;fill-rule:nonzero;stroke-linejoin:round;stroke-miterlimit:1.41421"
   id="path6448"
   sodipodi:nodetypes="ccccc" /><path
   d="m 382.33397,580.34937 c 0,0 23.24312,160.27465 182.28476,97.3229 l -103.0671,-72.7856 c 0,0 56.07508,-12.72891 113.54559,27.5144 0,0 16.73132,-145.02516 -157.47108,-78.9156"
   style="clip-rule:evenodd;fill:#f74c00;fill-rule:nonzero;stroke-linejoin:round;stroke-miterlimit:1.41421"
   id="path857"
   sodipodi:nodetypes="ccccc" /></g>
</svg>
