<?xml version="1.0" encoding="UTF-8" standalone="no"?>
<svg
   xmlns:dc="http://purl.org/dc/elements/1.1/"
   xmlns:cc="http://creativecommons.org/ns#"
   xmlns:rdf="http://www.w3.org/1999/02/22-rdf-syntax-ns#"
   xmlns:svg="http://www.w3.org/2000/svg"
   xmlns="http://www.w3.org/2000/svg"
   xmlns:xlink="http://www.w3.org/1999/xlink"
   xmlns:sodipodi="http://sodipodi.sourceforge.net/DTD/sodipodi-0.dtd"
   xmlns:inkscape="http://www.inkscape.org/namespaces/inkscape"
   width="1080.114"
   height="960.42688"
   viewBox="0 0 1080.114 960.42688"
   version="1.1"
   xml:space="preserve"
   style="clip-rule:evenodd;fill-rule:evenodd;stroke-linejoin:round;stroke-miterlimit:1.41421"
   id="svg1137"
   sodipodi:docname="ferris_exorcism.svg"
   inkscape:export-filename="/home/frans/Documents/rust/ferris/ferris_exorcism.png"
   inkscape:export-xdpi="100"
   inkscape:export-ydpi="100"
   inkscape:version="1.0.1 (3bc2e813f5, 2020-09-07)"><metadata
   id="metadata1143"><rdf:RDF><cc:Work
       rdf:about=""><dc:format>image/svg+xml</dc:format><dc:type
         rdf:resource="http://purl.org/dc/dcmitype/StillImage" /><dc:title></dc:title></cc:Work></rdf:RDF></metadata><defs
   id="defs1141"><linearGradient
   inkscape:collect="always"
   id="linearGradient1710"><stop
     style="stop-color:#00ffff;stop-opacity:1;"
     offset="0"
     id="stop1706" /><stop
     style="stop-color:#00ffff;stop-opacity:0;"
     offset="1"
     id="stop1708" /></linearGradient><radialGradient
   inkscape:collect="always"
   xlink:href="#linearGradient1710"
   id="radialGradient1714"
   cx="574.1521"
   cy="404.00015"
   fx="574.1521"
   fy="404.00015"
   r="478.64615"
   gradientTransform="matrix(1,0,0,0.78979712,13.613311,169.47005)"
   gradientUnits="userSpaceOnUse" />
        
        
        
        
        
        
        
        
        
    </defs><sodipodi:namedview
   pagecolor="#ffffff"
   bordercolor="#666666"
   borderopacity="1"
   objecttolerance="10"
   gridtolerance="10"
   guidetolerance="10"
   inkscape:pageopacity="0"
   inkscape:pageshadow="2"
   inkscape:window-width="1771"
   inkscape:window-height="1062"
   id="namedview1139"
   showgrid="false"
   inkscape:zoom="0.38301618"
   inkscape:cx="914.40636"
   inkscape:cy="811.07082"
   inkscape:window-x="1086"
   inkscape:window-y="1086"
   inkscape:window-maximized="0"
   inkscape:current-layer="g1198"
   inkscape:document-rotation="0"
   fit-margin-top="0"
   fit-margin-left="0"
   fit-margin-right="0"
   fit-margin-bottom="0" />
    <g
   transform="translate(1004.7373,594.82633)"
   id="g1102">
            <path
   d="m 0,-7.203 -12.072,-25.006 c 0.063,-0.947 0.111,-1.898 0.111,-2.853 0,-28.346 -29.478,-54.471 -79.069,-75.389 v 17.393 c -4.836,-1.919 -9.871,-3.787 -15.117,-5.593 v -8.108 c -70.874,-25.56 -176.383,-41.778 -294.241,-41.778 -102.973,0 -196.529,12.38 -265.791,32.554 v 28.246 h -0.002 v -34.188 c -70.96,22.55 -114.954,53.877 -114.954,88.515 0,5.46 1.101,10.838 3.217,16.113 l -7.228,12.867 c 0,0 -5.792,7.512 4.406,23.362 8.994,13.977 54.048,68.685 77.827,97.335 10.214,14.687 17.141,23.734 17.746,22.859 0.955,-1.386 -6.351,-28.961 -26.635,-60.423 -9.466,-16.895 -20.768,-39.283 -27.554,-55.819 18.942,11.99 130.23,68.029 357.232,67.801 231.994,-0.232 335.115,-72.851 346.433,-82.737 -3.955,15.889 -17.468,48.033 -28.245,70.638 -17.706,32.331 -24.12,60.478 -23.296,61.87 0.524,0.878 6.565,-8.441 15.476,-23.543 C -51.025,87.37 -11.739,30.974 -3.889,16.608 5.007,0.323 0,-7.203 0,-7.203"
   style="fill:#a52b00;fill-rule:nonzero"
   id="path1100"
   inkscape:connector-curvature="0" />
        </g><g
   transform="translate(1074.8273,383.34933)"
   id="g1106">
            <path
   d="m 0,204.135 -79.343,-58.446 c -0.745,-2.6 -1.49,-5.201 -2.26,-7.781 l 26.062,-37.754 c 2.66,-3.84 3.196,-8.832 1.469,-13.211 -1.731,-4.358 -5.515,-7.482 -9.99,-8.247 l -44.066,-7.479 c -1.709,-3.485 -3.498,-6.916 -5.294,-10.319 L -94.907,18.51 c 1.903,-4.317 1.505,-9.335 -1.022,-13.254 -2.517,-3.937 -6.786,-6.237 -11.338,-6.058 l -44.724,1.625 c -2.315,-3.016 -4.667,-6.003 -7.067,-8.937 l 10.278,-45.432 c 1.042,-4.612 -0.274,-9.443 -3.487,-12.794 -3.195,-3.339 -7.838,-4.722 -12.253,-3.639 l -43.562,10.709 c -2.82,-2.493 -5.688,-4.953 -8.588,-7.365 l 1.567,-46.641 c 0.168,-4.721 -2.033,-9.208 -5.812,-11.829 -3.777,-2.636 -8.57,-3.032 -12.701,-1.074 l -40.638,19.321 c -3.273,-1.878 -6.565,-3.737 -9.892,-5.537 l -7.181,-45.961 c -0.729,-4.656 -3.724,-8.612 -7.919,-10.418 -4.185,-1.817 -8.976,-1.228 -12.648,1.536 l -36.232,27.185 c -3.569,-1.185 -7.153,-2.32 -10.779,-3.407 l -15.617,-43.585 c -1.588,-4.443 -5.25,-7.706 -9.716,-8.624 -4.45,-0.909 -9.028,0.632 -12.114,4.08 l -30.499,34.119 c -3.685,-0.423 -7.377,-0.81 -11.076,-1.131 l -23.549,-39.676 c -2.384,-4.018 -6.597,-6.464 -11.139,-6.464 -4.529,0 -8.75,2.446 -11.118,6.464 l -23.555,39.676 c -3.701,0.321 -7.408,0.708 -11.088,1.131 l -30.499,-34.119 c -3.09,-3.448 -7.684,-4.989 -12.122,-4.08 -4.46,0.93 -8.128,4.181 -9.707,8.624 l -15.629,43.585 c -3.621,1.087 -7.205,2.23 -10.78,3.407 l -36.22,-27.185 c -3.683,-2.774 -8.478,-3.361 -12.668,-1.536 -4.181,1.806 -7.188,5.762 -7.913,10.418 l -7.186,45.961 c -3.322,1.8 -6.614,3.649 -9.895,5.537 l -40.634,-19.321 c -4.127,-1.966 -8.945,-1.562 -12.704,1.074 -3.773,2.621 -5.98,7.108 -5.81,11.829 l 1.562,46.641 c -2.894,2.412 -5.756,4.872 -8.591,7.365 l -43.554,-10.709 c -4.423,-1.074 -9.062,0.3 -12.265,3.639 -3.221,3.351 -4.526,8.182 -3.491,12.794 l 10.257,45.432 c -2.378,2.945 -4.733,5.921 -7.042,8.937 l -44.724,-1.625 c -4.513,-0.135 -8.821,2.121 -11.343,6.058 -2.527,3.919 -2.91,8.937 -1.029,13.254 l 18.528,42.388 c -1.799,3.403 -3.586,6.834 -5.309,10.319 l -44.063,7.479 c -4.479,0.754 -8.252,3.876 -9.994,8.247 -1.728,4.379 -1.167,9.371 1.474,13.211 l 26.066,37.754 c -0.201,0.667 -0.387,1.339 -0.587,2.008 l -73.696,78.285 c 0,0 -11.296,8.851 5.147,29.654 14.5,18.351 88.951,91.096 128.271,129.205 16.606,19.348 27.984,31.329 29.172,30.293 1.876,-1.645 -7.972,-36.847 -40.682,-78.149 -25.216,-37.056 -57.941,-94.049 -50.267,-100.618 0,0 8.729,-11.081 26.242,-19.057 0.641,0.512 -0.662,-0.507 0,0 0,0 369.595,170.491 712.429,2.884 39.164,-7.025 62.873,13.955 62.873,13.955 8.176,4.74 -12.996,63.344 -30.407,102.137 -23.679,44.05 -27.151,78.422 -25.144,79.614 1.268,0.757 9.883,-12.353 22.172,-33.217 C -67.814,332.649 -10.492,252.1 0,232.534 11.895,210.352 0,204.135 0,204.135"
   style="fill:#f74c00;fill-rule:nonzero"
   id="path1104"
   inkscape:connector-curvature="0" />
        </g><g
   transform="translate(913.23332,333.14333)"
   id="g1110">
            <path
   d="m 23.488052,214.74557 c 0,0 -1.71888,53.20839 -71.72682,124.05161 l -21.83781,10.20571 c 0,0 -109.360042,-106.89163 -181.428692,62.67227 0,0 23.90239,-15.09218 117.11401,-12.07201 0,0 -16.93359,51.05787 -99.00722,67.11114 0,0 98.75535,72.74019 188.227702,-83.15378 0,0 115.25874,-74.16608 102.68456,-176.26455 z"
   style="fill:#f74c00;fill-rule:nonzero"
   id="path1108"
   inkscape:connector-curvature="0" />
        </g><g
   transform="translate(672.33432,576.82533)"
   id="g1114">
            <path
   d="m 0,-78.192 c 0,0 36.935,-40.443 73.871,0 0,0 29.022,53.927 0,80.887 0,0 -47.487,37.748 -73.871,0 0,0 -31.658,-29.659 0,-80.887"
   style="fill-rule:nonzero"
   id="path1112"
   inkscape:connector-curvature="0" />
        </g><g
   transform="translate(715.09832,513.63333)"
   id="g1118">
            <path
   d="m 0,0.004 c 0,15.746 -9.282,28.514 -20.732,28.514 -11.448,0 -20.73,-12.768 -20.73,-28.514 0,-15.75 9.282,-28.518 20.73,-28.518 C -9.282,-28.514 0,-15.746 0,0.004"
   style="fill:#ffffff;fill-rule:nonzero"
   id="path1116"
   inkscape:connector-curvature="0" />
        </g><g
   transform="translate(507.48532,571.20033)"
   id="g1122">
            <path
   d="m 0,-83.609 c 0,0 63.355,-28.052 80.648,34.562 0,0 18.114,72.98 -52.03,77.099 0,0 -89.444,-17.228 -28.618,-111.661"
   style="fill-rule:nonzero"
   id="path1120"
   inkscape:connector-curvature="0" />
        </g><g
   transform="translate(539.30532,514.66833)"
   id="g1126">
            <path
   d="m 0,0.002 c 0,16.239 -9.572,29.409 -21.381,29.409 -11.804,0 -21.379,-13.17 -21.379,-29.409 0,-16.244 9.575,-29.411 21.379,-29.411 C -9.572,-29.409 0,-16.242 0,0.002"
   style="fill:#ffffff;fill-rule:nonzero"
   id="path1124"
   inkscape:connector-curvature="0" />
        </g><g
   transform="rotate(20.303911,-790.06294,1139.3176)"
   id="g1134">
            <path
   d="m 0,190.741 c -0.667,0 -1.321,0.049 -1.973,0.101 -26.234,-5.971 -99.973,-25.185 -119.464,-56.363 0,0 99.227,-112.872 -55.86,-185.019 l 18.057,124.878 c 0,0 -47.809,-31.949 -58.126,-101.346 0,0 -116.423,84.494 51.384,165.474 0,0 15.22,57.187 161.349,102.815 l 0.107,-0.435 c 1.471,0.272 2.977,0.435 4.526,0.435 13.808,0 25.003,-11.312 25.003,-25.271 0,-13.956 -11.195,-25.269 -25.003,-25.269"
   style="fill:#f74c00;fill-rule:nonzero"
   id="path1132"
   inkscape:connector-curvature="0" />
        <path
   d="m 0,190.741 c -0.667,0 -1.321,0.049 -1.973,0.101 -26.234,-5.971 -99.973,-25.185 -119.464,-56.363 0,0 99.22699,-112.872005 -55.86,-185.019005 L -159.24,74.338 c 22.43698,59.69222 53.77681,134.12621 154.60699,166.94301 L -4.526,240.846 c 1.471,0.272 2.977,0.435 4.526,0.43501 13.808,0 25.003,-11.312 25.003001,-25.27101 C 25.003003,202.054 13.808,190.741 0,190.741"
   style="clip-rule:evenodd;fill:#f74c00;fill-rule:nonzero;stroke-linejoin:round;stroke-miterlimit:1.41421"
   id="path1132-5"
   inkscape:connector-curvature="0"
   sodipodi:nodetypes="cccccccssc" /></g>
<path
   style="opacity:0;fill:url(#radialGradient1714);fill-opacity:1;fill-rule:evenodd;stroke:#000000;stroke-width:1px;stroke-linecap:butt;stroke-linejoin:miter;stroke-opacity:1"
   d="m 109.61331,866.08651 c 22.15385,-142.15384 5.53846,-734.76923 5.53846,-734.76923 278.15385,35.69231 610.47944,29.47927 950.76923,-20.30769 -58.3146,296.20233 -37.5767,494.79146 -20.3077,753.23077 C 753.921,833.47113 496.70402,811.2657 109.61331,866.08651 Z"
   id="path1690"
   inkscape:connector-curvature="0"
   sodipodi:nodetypes="ccccc" /><g
   id="g1052"
   transform="rotate(19.647531,6.0737295,557.88035)"><g
     id="g1071"><g
       id="g1075"
       transform="rotate(12.146338,121.29828,223.46226)"><rect
         style="fill:#c1af00;fill-opacity:1;stroke-width:7.55906;stroke-linejoin:round;stop-color:#000000"
         id="rect1046"
         width="61.354473"
         height="603.51453"
         x="50.186787"
         y="-63.859203" /><rect
         style="fill:#c1af00;fill-opacity:1;stroke-width:7.55906;stroke-linejoin:round;stop-color:#000000"
         id="rect1048"
         width="339.87323"
         height="59.972878"
         x="-90.347015"
         y="67.250732" /></g></g></g><g
   transform="rotate(20.303911,-790.06294,1139.3176)"
   id="g1099">
            <path
   d="m 0,190.741 c -0.667,0 -1.321,0.049 -1.973,0.101 -26.234,-5.971 -99.973,-25.185 -119.464,-56.363 0,0 99.227,-112.872 -55.86,-185.019 l 18.057,124.878 c 27.71594,72.32164 98.093381,148.54974 154.607,166.943 l 0.107,-0.435 c 1.471,0.272 2.977,0.435 4.526,0.435 13.808,0 25.003,-11.312 25.003,-25.271 0,-13.956 -11.195,-25.269 -25.003,-25.269"
   style="fill:#f74c00;fill-rule:nonzero"
   id="path1095"
   inkscape:connector-curvature="0"
   sodipodi:nodetypes="cccccccssc" />
        <path
   d="m 0,190.741 c -0.667,0 -1.321,0.049 -1.973,0.101 -26.234,-5.971 -99.973,-25.185 -119.464,-56.363 0,0 99.22699,-112.872005 -55.86,-185.019005 L -159.24,74.338 c 22.43698,59.69222 53.77681,134.12621 154.60699,166.94301 L -4.526,240.846 c 1.471,0.272 2.977,0.435 4.526,0.43501 13.808,0 25.003,-11.312 25.003001,-25.27101 C 25.003003,202.054 13.808,190.741 0,190.741"
   style="clip-rule:evenodd;fill:#f74c00;fill-rule:nonzero;stroke-linejoin:round;stroke-miterlimit:1.41421"
   id="path1097"
   inkscape:connector-curvature="0"
   sodipodi:nodetypes="cccccccssc" /></g><g
   id="g1176"
   transform="rotate(-22.773419,834.58816,658.75365)"><rect
     style="fill:#cac17c;fill-opacity:1;stroke-width:7.55906;stroke-linejoin:round;stop-color:#000000"
     id="rect1103"
     width="269.53226"
     height="376.35699"
     x="484.03391"
     y="461.21808"
     transform="rotate(0.08161171)" /><path
     id="path3"
     d="m 735.05055,679.38718 -10.00792,-6.36919 c -0.0843,-1.0022 -0.17993,-2.00207 -0.28469,-2.99725 l 8.60033,-8.24716 c 0.87461,-0.83829 1.26636,-2.07935 1.02949,-3.28058 -0.23005,-1.20594 -1.05227,-2.19879 -2.17058,-2.6273 l -10.99414,-4.22658 c -0.27559,-0.9788 -0.56484,-1.95058 -0.86094,-2.91766 l 6.85796,-9.7926 c 0.69922,-0.99519 0.84272,-2.29011 0.38719,-3.42578 -0.45553,-1.13099 -1.45085,-1.9412 -2.6284,-2.14022 L 713.38572,631.424 c -0.45099,-0.90387 -0.92016,-1.79369 -1.39391,-2.67647 l 4.87185,-10.99384 c 0.4988,-1.1193 0.39631,-2.42123 -0.26876,-3.43751 -0.66278,-1.02092 -1.78566,-1.61803 -2.98369,-1.57119 l -11.76626,0.42149 c -0.60811,-0.78211 -1.22763,-1.55719 -1.85853,-2.31821 l 2.70352,-11.78298 c 0.27332,-1.19655 -0.0706,-2.44932 -0.91787,-3.31807 -0.84045,-0.86638 -2.06126,-1.22464 -3.22513,-0.94365 l -11.45877,2.77715 c -0.74249,-0.64628 -1.4964,-1.28555 -2.2594,-1.91077 l 0.41225,-12.09674 c 0.0456,-1.22466 -0.53524,-2.38845 -1.52829,-3.06751 -0.99532,-0.68375 -2.25486,-0.78677 -3.34129,-0.27865 l -10.6912,5.01105 c -0.86323,-0.48706 -1.72873,-0.96944 -2.60334,-1.43541 l -1.89043,-11.92113 c -0.19133,-1.20827 -0.97938,-2.2339 -2.08175,-2.70223 -1.10011,-0.47067 -2.36191,-0.31844 -3.3299,0.39807 l -9.5319,7.05061 c -0.93838,-0.30676 -1.88131,-0.60179 -2.83337,-0.8828 l -4.11113,-11.30528 c -0.4168,-1.15208 -1.38251,-1.99741 -2.5555,-2.23624 -1.1707,-0.2365 -2.37556,0.16393 -3.18869,1.05839 l -8.02182,8.84895 c -0.96798,-0.11012 -1.94282,-0.21073 -2.91536,-0.29269 l -6.19517,-10.29138 c -0.62634,-1.04203 -1.73555,-1.6766 -2.92903,-1.6766 -1.19347,0 -2.30267,0.63457 -2.92676,1.6766 l -6.19514,10.29138 c -0.97484,0.082 -1.94966,0.18264 -2.91765,0.29269 l -8.0241,-8.84895 c -0.81311,-0.89448 -2.02026,-1.29489 -3.18869,-1.05839 -1.17297,0.24118 -2.1387,1.08416 -2.55549,2.23624 l -4.11114,11.30528 c -0.95206,0.28101 -1.89498,0.57837 -2.83564,0.8828 l -9.52961,-7.05061 c -0.96799,-0.71885 -2.22982,-0.87108 -3.33219,-0.39807 -1.1001,0.46833 -1.89043,1.49396 -2.08175,2.70223 l -1.89043,11.92113 c -0.87461,0.46597 -1.74011,0.94601 -2.60334,1.43541 l -10.69119,-5.01105 c -1.08643,-0.51046 -2.3528,-0.4051 -3.34129,0.27865 -0.99305,0.67906 -1.57386,1.84285 -1.5283,3.06751 l 0.40997,12.09674 c -0.76072,0.62522 -1.51461,1.26449 -2.2594,1.91077 l -11.45877,-2.77715 c -1.16386,-0.27865 -2.38468,0.0773 -3.22741,0.94365 -0.84728,0.86875 -1.1912,2.12152 -0.91788,3.31807 l 2.69899,11.78298 c -0.62634,0.76338 -1.24586,1.5361 -1.85399,2.31821 l -11.76624,-0.42149 c -1.18664,-0.0351 -2.32091,0.55027 -2.9837,1.57119 -0.66506,1.01628 -0.76529,2.31821 -0.27104,3.43751 l 4.87415,10.99384 c -0.47376,0.88278 -0.94296,1.7726 -1.39621,2.67647 l -11.59314,1.93886 c -1.17755,0.19668 -2.17059,1.00689 -2.62838,2.14022 -0.45553,1.13567 -0.30749,2.43059 0.38718,3.42578 l 6.85796,9.7926 c -0.29838,0.96708 -0.58764,1.93886 -0.86093,2.91766 l -10.99643,4.22658 c -1.11604,0.42851 -1.93825,1.42136 -2.17058,2.6273 -0.23231,1.20358 0.1571,2.44229 1.0295,3.28058 l 8.60261,8.24716 c -0.10713,0.99518 -0.20271,1.99739 -0.28469,2.99725 l -10.00792,6.36919 c -1.01356,0.64394 -1.63079,1.78196 -1.63079,3.0113 0,1.22934 0.61723,2.36737 1.63079,3.00897 l 10.00792,6.36917 c 0.082,1.00222 0.17765,2.00208 0.28469,2.99727 l -8.60261,8.24948 c -0.87234,0.83595 -1.26181,2.07701 -1.0295,3.27826 0.23233,1.20592 1.05454,2.19643 2.17058,2.62729 l 10.99643,4.22659 c 0.27329,0.97881 0.56255,1.95056 0.86093,2.91766 l -6.85796,9.79495 c -0.69695,0.99752 -0.84498,2.29243 -0.38718,3.42342 0.45779,1.1357 1.45312,1.94588 2.63065,2.14024 l 11.59087,1.93885 c 0.45325,0.90386 0.91789,1.79367 1.39621,2.68114 l -4.87415,10.98918 c -0.49652,1.11694 -0.39402,2.41654 0.27104,3.43748 0.66508,1.02328 1.79706,1.6204 2.9837,1.57123 l 11.76169,-0.42384 c 0.61268,0.78677 1.22992,1.55717 1.85854,2.32286 l -2.69899,11.78534 c -0.27332,1.19421 0.0706,2.44228 0.91788,3.31103 0.84046,0.87342 2.06355,1.22233 3.22741,0.94133 l 11.45877,-2.7748 c 0.74479,0.65097 1.49868,1.2832 2.2594,1.90607 l -0.40997,12.09908 c -0.0456,1.22466 0.53525,2.38611 1.5283,3.06986 0.98849,0.6814 2.25486,0.78442 3.34129,0.27396 l 10.69119,-5.0087 c 0.86095,0.49174 1.72646,0.96944 2.60334,1.43541 l 1.89043,11.91411 c 0.19132,1.21294 0.97939,2.23857 2.08175,2.70455 1.10011,0.47066 2.3642,0.31846 3.33219,-0.39572 l 9.52504,-7.05529 c 0.94067,0.30677 1.88588,0.60647 2.83794,0.88748 l 4.11112,11.30061 c 0.41681,1.14738 1.38252,1.99738 2.55549,2.23155 1.17072,0.24352 2.37559,-0.15927 3.18869,-1.05842 l 8.0241,-8.84426 c 0.96799,0.11484 1.94283,0.21076 2.91765,0.29973 l 6.19516,10.28904 c 0.62407,1.03733 1.73329,1.6766 2.92677,1.6766 1.19347,0 2.30268,-0.63691 2.92902,-1.6766 l 6.19516,-10.28904 c 0.97482,-0.089 1.94739,-0.18498 2.91538,-0.29973 l 8.02181,8.84426 c 0.81311,0.89918 2.02026,1.30194 3.18869,1.05842 1.17298,-0.23651 2.13869,-1.08417 2.5555,-2.23155 l 4.11112,-11.30061 c 0.95205,-0.28101 1.89727,-0.58071 2.83794,-0.88748 l 9.52732,7.05529 c 0.968,0.71418 2.22981,0.86638 3.32991,0.39572 1.10237,-0.46598 1.89043,-1.49395 2.08175,-2.70455 l 1.89044,-11.91411 c 0.87461,-0.46597 1.7401,-0.9507 2.60332,-1.43541 l 10.6912,5.0087 c 1.08645,0.51046 2.35053,0.40744 3.34129,-0.27396 0.99305,-0.68375 1.57157,-1.84286 1.5283,-3.06986 l -0.40997,-12.09908 c 0.76073,-0.62522 1.51462,-1.2551 2.25713,-1.90607 l 11.45877,2.7748 c 1.16387,0.281 2.38468,-0.0678 3.22511,-0.94133 0.84729,-0.86875 1.19121,-2.11682 0.91791,-3.31103 l -2.69901,-11.78534 c 0.62864,-0.76569 1.24816,-1.53609 1.854,-2.32286 l 11.76625,0.42384 c 1.18664,0.0491 2.3209,-0.54795 2.98369,-1.57123 0.66507,-1.02094 0.76756,-2.32054 0.26876,-3.43748 l -4.87186,-10.98918 c 0.47604,-0.88747 0.94296,-1.77728 1.39392,-2.68114 l 11.59313,-1.93885 c 1.17983,-0.19436 2.17286,-1.00454 2.62839,-2.14024 0.45553,-1.13099 0.31206,-2.4259 -0.38718,-3.42342 l -6.85797,-9.79495 c 0.2961,-0.9671 0.58536,-1.93885 0.86096,-2.91766 l 10.99414,-4.22659 c 1.11831,-0.43086 1.9428,-1.42137 2.17057,-2.62729 0.23688,-1.20359 -0.15491,-2.44231 -1.02949,-3.27826 l -8.60034,-8.24948 c 0.10484,-0.99519 0.20044,-1.9974 0.28471,-2.99727 l 10.00792,-6.36917 c 1.01354,-0.6416 1.63077,-1.78196 1.63077,-3.00897 0,-1.227 -0.61494,-2.36736 -1.6285,-3.0113 z m -66.98287,85.35399 c -3.82188,-0.84767 -6.25211,-4.72068 -5.43216,-8.66162 0.81765,-3.93624 4.5826,-6.44177 8.40219,-5.59409 3.82187,0.84064 6.25664,4.72066 5.43671,8.65458 -0.81995,3.93389 -4.58715,6.44178 -8.40674,5.60113 z m -3.40051,-23.64558 c -3.48705,-0.76804 -6.91717,1.51269 -7.66424,5.10472 l -3.55311,17.04691 c -10.96451,5.11641 -23.14072,7.95913 -35.96379,7.95913 -13.11689,0 -25.5573,-2.98321 -36.71771,-8.3174 l -3.55084,-17.04691 c -0.74705,-3.58734 -4.17717,-5.87277 -7.66195,-5.10237 l -14.63833,3.23143 c -2.71722,-2.87551 -5.24539,-5.93833 -7.56857,-9.17209 h 71.2261 c 0.80629,0 1.34382,-0.14996 1.34382,-0.90386 v -25.90288 c 0,-0.75399 -0.53753,-0.90387 -1.34382,-0.90387 h -20.83122 v -16.41935 h 22.53033 c 2.05671,0 10.99641,0.60413 13.85485,12.35198 0.89511,3.6131 2.86069,15.36564 4.20449,19.1286 1.33925,4.21959 6.7919,12.64938 12.60215,12.64938 h 35.49233 c 0.40314,0 0.83362,-0.0468 1.28687,-0.13112 -2.46213,3.43983 -5.16339,6.69468 -8.07193,9.73643 z m -98.51213,23.28966 c -3.82186,0.84766 -7.58452,-1.65785 -8.40674,-5.59412 -0.81767,-3.94325 1.61256,-7.81394 5.43444,-8.6616 3.82184,-0.84064 7.58679,1.66487 8.40672,5.60113 0.81767,3.9339 -1.61485,7.8116 -5.43442,8.65459 z M 539.13549,651.74214 c 1.58522,3.67867 -0.0273,7.98957 -3.60093,9.61699 -3.57361,1.6321 -7.75533,-0.0281 -9.34057,-3.70911 -1.58523,-3.68101 0.0273,-7.98489 3.60093,-9.61699 3.57587,-1.62976 7.75533,0.0281 9.34057,3.70911 z m -8.30423,20.23851 15.24873,-6.96628 c 3.25701,-1.48692 4.72837,-5.41145 3.28208,-8.76698 l -3.14086,-7.30114 h 12.35159 v 57.23829 h -24.91956 c -2.16147,-7.81159 -3.32079,-16.05641 -3.32079,-24.57751 0,-3.25251 0.17081,-6.46752 0.49881,-9.62638 z m 66.91681,-5.55896 v -16.87131 h 29.41334 c 1.51917,0 10.72765,1.8054 10.72765,8.88407 0,5.87746 -7.06294,7.9849 -12.8709,7.9849 h -27.27009 z m 106.89382,15.18534 c 0,2.23856 -0.0798,4.45373 -0.23916,6.6525 h -8.94199 c -0.89509,0 -1.25495,0.60413 -1.25495,1.50566 v 4.22193 c 0,9.93777 -5.45038,12.09908 -10.22658,12.64935 -4.54843,0.52686 -9.59111,-1.95759 -10.2129,-4.81902 -2.68305,-15.5155 -7.15405,-18.82887 -14.21471,-24.55412 8.76205,-5.72055 17.87941,-14.15972 17.87941,-25.45562 0,-12.19745 -8.13341,-19.88028 -13.67716,-23.64792 -7.77813,-5.27095 -16.38985,-6.32703 -18.71304,-6.32703 h -92.47868 c 12.54063,-14.38919 29.53633,-24.58222 48.75955,-28.29131 l 10.90074,11.75722 c 2.46439,2.65305 6.54591,2.75137 9.12419,0.21542 l 12.19673,-11.99372 c 25.5573,4.89163 47.1948,21.24775 59.66484,43.6874 l -8.3498,19.38853 c -1.44174,3.35553 0.0297,7.28006 3.28434,8.76697 l 16.07553,7.34095 c 0.27788,2.93402 0.42364,5.89851 0.42364,8.90281 z m -92.41493,-98.06661 c 2.82427,-2.78182 7.30437,-2.67177 10.00792,0.23651 2.699,2.9153 2.5965,7.52593 -0.23458,10.30543 -2.82428,2.78182 -7.30437,2.67411 -10.00792,-0.23885 -2.69671,-2.91062 -2.59422,-7.52126 0.23458,-10.30309 z m 82.86025,68.5553 c 1.58296,-3.67867 5.7647,-5.33887 9.33829,-3.70677 3.57362,1.62976 5.18618,5.93832 3.60096,9.61699 -1.58296,3.68102 -5.7647,5.34121 -9.34057,3.70911 -3.56907,-1.62976 -5.18163,-5.93597 -3.59868,-9.61933 z"
     style="stroke-width:2.30939" /><rect
     style="fill:#d3d654;fill-opacity:1;stroke-width:7.55906;stroke-linejoin:round;stop-color:#000000"
     id="rect1158"
     width="269.28683"
     height="98.256279"
     x="483.37646"
     y="461.90707" /><rect
     style="fill:#191a06;fill-opacity:1;stroke-width:7.55906;stroke-linejoin:round;stop-color:#000000"
     id="rect1160"
     width="269.40359"
     height="18.779259"
     x="483.25974"
     y="541.38409" /></g><g
   transform="translate(913.23332,333.14333)"
   id="g1198">
            <path
   d="m 23.488052,214.74557 c 0,0 -1.71888,53.20839 -71.72682,124.05161 l -21.83781,10.20571 c -46.854542,-9.50963 -49.698802,13.03167 -64.314682,50.60026 0,0 -16.93359,51.05787 -99.00722,67.11114 0,0 98.75535,72.74019 188.227702,-83.15378 0,0 115.25874,-74.16608 102.68456,-176.26455 z"
   style="fill:#f74c00;fill-rule:nonzero"
   id="path1196"
   inkscape:connector-curvature="0"
   sodipodi:nodetypes="cccccccc" />
        </g></svg>
